<?xml version="1.0" encoding="UTF-8" standalone="no"?>
<!-- Created with Inkscape (http://www.inkscape.org/) -->

<svg
   width="210mm"
   height="297mm"
   viewBox="0 0 210 297"
   version="1.1"
   id="svg1"
   inkscape:version="1.4.2 (f4327f4, 2025-05-13)"
   sodipodi:docname="SV Logo.svg"
   xmlns:inkscape="http://www.inkscape.org/namespaces/inkscape"
   xmlns:sodipodi="http://sodipodi.sourceforge.net/DTD/sodipodi-0.dtd"
   xmlns="http://www.w3.org/2000/svg"
   xmlns:svg="http://www.w3.org/2000/svg"
   xmlns:rdf="http://www.w3.org/1999/02/22-rdf-syntax-ns#"
   xmlns:cc="http://creativecommons.org/ns#"
   xmlns:dc="http://purl.org/dc/elements/1.1/">
  <title
     id="title19">SV Logo</title>
  <sodipodi:namedview
     id="namedview1"
     pagecolor="#ffffff"
     bordercolor="#000000"
     borderopacity="0.25"
     inkscape:showpageshadow="2"
     inkscape:pageopacity="0.0"
     inkscape:pagecheckerboard="0"
     inkscape:deskcolor="#d1d1d1"
     inkscape:document-units="mm"
     inkscape:zoom="0.68862935"
     inkscape:cx="396.43968"
     inkscape:cy="677.43264"
     inkscape:window-width="1920"
     inkscape:window-height="991"
     inkscape:window-x="-9"
     inkscape:window-y="-9"
     inkscape:window-maximized="1"
     inkscape:current-layer="layer1" />
  <defs
     id="defs1">
    <rect
       x="563.43808"
       y="922.1216"
       width="74.06016"
       height="78.41664"
       id="rect18" />
    <rect
       x="60.99072"
       y="988.92096"
       width="1022.3206"
       height="132.14656"
       id="rect17" />
  </defs>
  <g
     inkscape:label="Layer 1"
     inkscape:groupmode="layer"
     id="layer1">
    <path
       id="path2"
       style="fill:#453748;stroke-width:0.264583"
       d="m 95.676264,29.553406 c -9.83363,-0.180101 -19.671714,0.353838 -29.345002,2.1769 -4.862976,0.916493 -6.142456,1.357812 -10.932406,2.642295 -8.845906,2.584219 -17.240162,6.520458 -24.806039,11.790142 -1.357983,0.945847 -2.651954,1.980092 -3.977948,2.970287 -5.220187,1.750343 -10.069672,9.172947 -12.437839,15.799236 -0.381987,1.068826 -0.617448,2.18466 -0.926126,3.276917 -0.109136,1.126675 -0.328093,2.248295 -0.327449,3.380244 0.0022,3.778391 1.191671,7.53087 2.916347,10.859312 1.674811,3.232213 2.878309,4.569737 5.079186,7.497613 7.607716,9.017714 17.161048,16.055758 26.549268,23.083718 10.253527,7.50362 20.543491,14.98299 30.284511,23.15206 0.04361,0.0366 0.08698,0.0735 0.130536,0.11004 -0.814099,0.65762 -1.628155,1.31479 -2.44224,1.97231 -2.885542,2.31024 -4.852482,3.88462 -6.133247,4.90966 3.056011,-2.44281 7.190649,-5.73932 -5.358132,4.34881 -7.948523,6.38993 -15.956355,12.7125 -23.689797,19.36429 -4.83952,4.30557 -9.719545,8.54649 -13.85206,13.56469 -1.970427,2.39272 -4.007751,5.22806 -5.342009,8.06133 -0.55068,1.16936 -0.880115,2.43069 -1.320101,3.64604 -0.187844,2.61872 -0.611142,3.6938 0.509781,6.14842 1.882134,4.12153 7.285885,6.70203 11.07593,8.58555 1.437411,0.59215 2.859453,1.22415 4.312575,1.77662 8.850526,3.36489 18.119605,5.46643 27.446484,6.99406 3.446498,0.4893 8.619755,1.31678 12.113788,1.44264 4.540027,0.16355 9.08567,0.14932 13.628585,0.12708 5.731142,-0.0281 11.45798,-0.56475 17.03363,-1.93081 3.91101,-1.20933 5.70911,-1.55658 9.31094,-3.47172 3.70665,-1.97086 7.22054,-4.74917 9.30458,-8.46705 0.63153,-1.12664 0.98409,-2.38806 1.47592,-3.58231 0.55991,-3.57445 0.92281,-4.29945 0.45384,-7.99682 -0.86006,-6.78061 -4.22447,-12.94888 -7.66911,-18.71335 -1.19364,-1.73941 -2.33488,-3.51604 -3.58121,-5.21809 -7.32631,-10.00509 -16.150129,-18.80866 -25.348142,-27.07923 -1.622777,-1.4078 -3.232797,-2.8308 -4.861244,-4.232 8.044089,-6.08878 16.201846,-12.02513 24.350096,-17.97331 3.39138,-2.34022 6.55456,-4.97391 9.74804,-7.56855 0.24196,-0.25878 0.54341,-0.51096 0.78568,-0.79766 -0.14952,-0.55845 -0.27817,-1.12162 -0.34106,-1.70131 -0.006,-0.0293 -0.012,-0.0589 -0.0182,-0.0882 -0.0344,-0.0755 -0.0682,-0.1509 -0.10195,-0.22667 l -9.07165,0.11011 c -0.007,0.21243 -0.10228,0.43693 -0.29717,0.63721 0.3169,0.47517 0.0478,1.19441 -1.01481,1.46401 -0.61413,0.15583 -1.22721,0.31294 -1.82527,0.51726 -0.0651,0.0633 -0.12997,0.1271 -0.19458,0.19099 -0.71461,0.61302 -1.28122,1.36256 -1.89584,2.06851 -0.28355,0.32569 -0.57775,0.5122 -0.84816,0.58912 -1.34211,1.42333 -2.7695,2.76808 -4.231249,4.07157 -6.07708,5.38527 -12.346562,10.54521 -18.653578,15.65814 C 72.592794,126.20826 63.52895,119.31416 54.561802,112.30102 45.709393,105.29318 36.719162,98.226325 29.69417,89.299234 28.842604,88.07612 27.923237,86.897602 27.139522,85.629935 c -2.609411,-4.220744 -4.477028,-9.027106 -4.3944,-14.052263 0.01771,-1.077112 0.211911,-2.143773 0.318075,-3.215788 0.757555,-2.924835 0.752129,-3.493687 2.097203,-6.25706 2.341857,-4.811197 5.995225,-8.792119 9.995271,-12.278587 1.251452,-0.977017 2.466645,-2.002371 3.754129,-2.931394 7.353486,-5.306141 15.635572,-9.111004 24.349774,-11.571165 1.831423,-0.47387 3.650929,-0.997333 5.494441,-1.42175 3.708066,-0.853682 7.266345,-1.460796 11.036906,-1.952082 1.806636,-0.235396 3.618801,-0.433004 5.433708,-0.592579 1.585804,-0.139431 3.203896,-0.01646 4.773727,-0.253297 0.443961,0.02296 0.887731,0.05237 1.330358,0.09393 4.115554,0.386445 8.636189,1.340997 11.839726,4.155046 0.57794,0.507669 1.02985,1.14268 1.54485,1.714086 0.32112,0.641359 0.73534,1.244228 0.96343,1.924248 1.34166,3.999957 -0.79347,8.155947 -2.68257,11.551053 -0.614,0.883304 -1.18517,1.797658 -1.84176,2.64978 -4.05622,5.264138 -9.334733,9.379939 -14.895269,12.942725 -4.862071,2.858574 -9.951874,5.848991 -15.703446,6.31059 l 12.0931,1.611886 c 4.65328,-1.562317 8.75968,-4.406633 12.823712,-7.086497 5.552673,-3.799235 10.870763,-8.024623 15.217263,-13.196249 0.73684,-0.876698 1.40055,-1.811932 2.10089,-2.718042 2.26227,-3.571895 4.90571,-7.922548 3.58034,-12.352143 -0.23488,-0.785004 -0.68988,-1.486605 -1.03484,-2.229844 -0.5629,-0.66325 -1.04612,-1.403563 -1.68877,-1.989862 -3.52145,-3.212649 -8.62014,-4.26539 -13.20344,-4.697672 -1.583449,-0.149345 -3.177122,-0.155617 -4.765686,-0.233629 z M 81.358926,139.2831 c 0.795731,0.69392 1.590675,1.38887 2.38961,2.07903 8.978328,8.15203 17.627304,16.87738 24.366554,27.02189 1.12211,1.68909 2.10622,3.46594 3.15926,5.19892 2.98742,5.74348 5.74634,11.89503 6.16368,18.45927 0.23398,3.68026 -0.12201,4.17146 -0.88937,7.66774 -0.50114,1.12516 -0.87763,2.31438 -1.50323,3.37539 -2.03736,3.45539 -5.31112,6.07687 -8.80395,7.94315 -3.45787,1.84761 -5.01731,2.12604 -8.787525,3.29275 -5.331528,1.237 -10.822803,1.91915 -16.304866,1.80879 -0.04171,-5e-4 -0.06483,-0.002 -0.07087,-0.005 l -5.26e-4,-5.1e-4 -5.16e-4,-5.1e-4 -7e-6,-5.2e-4 -6e-6,-5.1e-4 5.04e-4,-5.3e-4 5.13e-4,-5.2e-4 c 0.05795,-0.0373 2.122008,-0.18197 1.651059,-0.26552 -2.011239,-0.35681 -4.074501,-0.30326 -6.10468,-0.5285 -2.031633,-0.22538 -4.051119,-0.54861 -6.076732,-0.82288 -7.449324,-1.21143 -14.85715,-2.79459 -21.999603,-5.26636 -3.974302,-1.3754 -4.692752,-1.79427 -8.421573,-3.47147 -3.616928,-1.98613 -7.87797,-4.17381 -9.672942,-8.17054 -1.007157,-2.24256 -0.728829,-3.06939 -0.716457,-5.50611 0.282924,-1.13217 0.452832,-2.2986 0.848706,-3.39639 0.94719,-2.6266 2.689953,-5.58173 4.271984,-7.82611 2.20531,-3.12861 4.858902,-6.10942 7.527986,-8.83567 1.561506,-1.59495 3.213691,-3.09807 4.820654,-4.6472 10.849134,-9.99396 22.486977,-19.08845 34.152343,-28.10174 z"
       sodipodi:nodetypes="cscscscssccscccscsscscccsscsscscsccccccccccsccscccccsscscscssscsscsccccccscscssccccscscsscccccccccsscscscsssccc" />
    <path
       d="m 196.02845,19.722486 c -2.82774,5.144553 -5.68714,10.271625 -8.46873,15.441435 -1.18537,2.269513 -2.39844,4.524473 -3.55586,6.80837 -7.54063,14.879677 -14.38061,30.125052 -20.21634,45.755347 -2.9107,8.163824 -4.81065,13.233262 -7.39128,21.511862 -1.89173,6.06865 -4.33515,14.95146 -5.94072,21.11913 -0.88994,3.41863 -1.7753,6.83929 -2.57348,10.2805 -0.76079,3.28001 -1.40141,6.58667 -2.1022,9.88002 -0.91807,4.60021 -2.83616,14.13078 -3.70727,18.80247 -1.51537,8.12687 -2.75964,16.29204 -4.04213,24.45742 -0.2136,1.35998 -0.4299,2.71932 -0.64647,4.07882 -1.50827,-10.99047 -3.13914,-21.96881 -5.32112,-32.84864 -2.10974,-11.37673 -4.26151,-22.74921 -6.63784,-34.07337 -1.98664,-8.90133 -4.1891,-17.77358 -7.059,-26.43611 -1.05704,-2.78149 -2.02721,-5.737548 -4.09019,-7.982978 -3.80735,-4.14407 -10.61611,-2.54575 -15.747884,-1.37872 -0.45877,0.23884 -0.94266,0.43409 -1.37614,0.71623 -3.0215,1.96661 -4.72784,5.402918 -6.63991,8.320938 -2.32833,3.95416 -4.60393,7.94072 -6.59029,12.0804 l 12.1543,0.26562 c 0.1537,-4.33008 2.42454,-8.18619 4.591964,-11.80135 1.31192,-1.82977 2.72916,-3.93683 4.46123,-5.597068 1.52851,1.688278 2.55855,3.797608 3.63699,5.790338 0.60602,1.35188 1.17042,2.7192 1.70067,4.09897 0.32893,0.13626 0.50475,0.42227 0.48886,0.74208 0.16307,0.0879 0.27717,0.22368 0.33434,0.38654 0.39904,0.18646 0.56772,0.6479 0.33177,1.1405 0.0426,0.18969 0.0103,0.39955 -0.10594,0.59893 2.19578,6.29787 3.79718,12.80751 5.4746,19.25567 2.82003,11.2721 5.35024,22.61211 7.583,34.01446 2.28604,11.45042 3.74349,23.0384 4.93407,34.64646 0.63229,7.60001 1.11532,15.21159 1.70222,22.81515 0.20835,2.15306 0.27253,4.3256 0.48369,6.47971 -0.0279,0.10485 -0.0562,0.20965 -0.0853,0.31419 -0.0264,0.0951 -0.0536,0.19043 -0.0811,0.28525 0.0693,-0.0117 0.14489,-0.0226 0.22583,-0.032 0.0128,0.11483 0.026,0.22999 0.0398,0.34469 0.0392,0.22739 0.0914,0.45184 0.14418,0.67644 -0.0356,10e-4 -0.0798,0.009 -0.13436,0.0232 0.003,-0.30391 -0.12285,-0.28587 -0.34468,-0.35656 -0.0422,-0.0209 -0.0811,-0.0416 -0.11731,-0.0615 -0.017,0.0495 -0.0343,0.0992 -0.0522,0.14831 -0.0522,0.14368 -0.17674,0.26069 -0.20257,0.41135 -0.0808,0.47102 -0.0756,0.95244 -0.11318,1.42885 0.008,-0.001 0.0146,-0.007 0.0233,-0.003 4.24986,-0.14343 9.06161,2.01185 12.78423,-0.015 0.23547,-0.1052 0.37292,-0.17022 0.43667,-0.46663 0.25156,-0.39535 0.34387,-0.73167 0.29093,-1.24127 -0.29863,0.0341 -0.51972,-0.75418 -0.65112,-0.89607 -0.31872,-0.61119 -0.52577,-1.24856 -0.73484,-1.90066 -2.4e-4,-0.003 -2.7e-4,-0.007 -5.1e-4,-0.0103 -0.32522,-8.99674 0.51892,-17.98123 1.19217,-26.94305 0.84,-10.48375 1.71387,-20.97088 3.11816,-31.39757 1.01218,-7.51537 1.7127,-11.27271 2.98328,-18.7973 3.0701,-17.61853 7.24745,-35.08339 12.88655,-52.065558 1.19253,-3.59131 2.53484,-7.13097 3.80235,-10.696503 4.93449,-13.120328 11.02401,-25.787025 17.90899,-37.990963 3.45412,-6.122582 5.05327,-8.528141 8.71523,-14.364498 3.3791,-5.209437 7.00924,-10.24721 10.62364,-15.29364 z m -84.72713,76.707976 c -0.095,0.002 -0.72848,0.013 -1.63142,0.0305 0.0108,-0.004 0.022,-0.007 0.0325,-0.0108 1.25095,-0.016 1.69393,-0.0219 1.59887,-0.0196 z m 32.012,133.841958 c 0.79283,0.09 0.94708,0.12856 0.01,0.0543 -7.6e-4,8.5e-4 -0.002,0.002 -0.003,0.003 l -5.2e-4,5.2e-4 h -5.2e-4 -5.1e-4 v 5.2e-4 h -5.2e-4 v -5.2e-4 h -5.2e-4 v -5.2e-4 c -0.002,-0.019 -0.003,-0.0379 -0.005,-0.0568 z"
       style="fill:#453748;stroke-width:0.264583"
       id="path19" />
    <path
       style="fill:#453748;stroke-width:0.264583"
       id="path17"
       d="m 110.76997,114.11565 c 0.69654,-1.13914 1.51819,-2.19171 2.2929,-3.27774 0.46844,-0.97344 1.31983,-1.64988 1.93985,-2.50473 0.34377,-0.50921 0.6575,-1.02248 1.05948,-1.48889 0,0 -5.88263,-0.40414 -5.88263,-0.40414 v 0 c -0.38229,0.48962 -0.72041,1.00687 -1.08819,1.50722 -0.65951,0.8172 -1.36589,1.59447 -1.87132,2.52634 -0.77257,1.0697 -1.54274,2.1507 -2.36875,3.17614 z" />
    <text
       xml:space="preserve"
       transform="matrix(0.24189112,0,0,0.26458333,-14.685286,-22.668823)"
       id="text17"
       style="font-size:74.6667px;font-family:'Copperplate Gothic Bold';-inkscape-font-specification:'Copperplate Gothic Bold, ';text-align:start;writing-mode:lr-tb;direction:ltr;white-space:pre;shape-inside:url(#rect17);display:inline;fill:#453748"><tspan
         x="60.990234"
         y="1071.4385"
         id="tspan1">SEBASTIAN VARISTO</tspan></text>
    <text
       xml:space="preserve"
       transform="scale(0.26458333)"
       id="text18"
       style="font-size:42.6667px;font-family:'Copperplate Gothic Bold';-inkscape-font-specification:'Copperplate Gothic Bold, ';text-align:start;writing-mode:lr-tb;direction:ltr;white-space:pre;shape-inside:url(#rect18);display:inline;fill:#453748" />
  </g>
  <metadata
     id="metadata19">
    <rdf:RDF>
      <cc:Work
         rdf:about="">
        <dc:title>SV Logo</dc:title>
      </cc:Work>
    </rdf:RDF>
  </metadata>
</svg>
